<svg width="184" height="62" viewBox="0 0 184 62" fill="none" xmlns="http://www.w3.org/2000/svg">
<path d="M77 17.92C79.96 17.92 82.5467 18.5067 84.76 19.68C86.9733 20.8533 88.68 22.5067 89.88 24.64C91.1067 26.7467 91.72 29.1867 91.72 31.96C91.72 34.7067 91.1067 37.1467 89.88 39.28C88.68 41.4133 86.96 43.0667 84.72 44.24C82.5067 45.4133 79.9333 46 77 46H66.48V17.92H77ZM76.56 40.08C79.1467 40.08 81.16 39.3733 82.6 37.96C84.04 36.5467 84.76 34.5467 84.76 31.96C84.76 29.3733 84.04 27.36 82.6 25.92C81.16 24.48 79.1467 23.76 76.56 23.76H73.32V40.08H76.56ZM113.023 41.04H102.543L100.863 46H93.7025L103.863 17.92H111.783L121.943 46H114.703L113.023 41.04ZM111.263 35.76L107.783 25.48L104.343 35.76H111.263ZM156.835 17.92V46H149.995V29.16L143.715 46H138.195L131.875 29.12V46H125.035V17.92H133.115L140.995 37.36L148.795 17.92H156.835ZM171.913 46.28C169.86 46.28 168.02 45.9467 166.393 45.28C164.767 44.6133 163.46 43.6267 162.473 42.32C161.513 41.0133 161.007 39.44 160.953 37.6H168.233C168.34 38.64 168.7 39.44 169.313 40C169.927 40.5333 170.727 40.8 171.713 40.8C172.727 40.8 173.527 40.5733 174.113 40.12C174.7 39.64 174.993 38.9867 174.993 38.16C174.993 37.4667 174.753 36.8933 174.273 36.44C173.82 35.9867 173.247 35.6133 172.553 35.32C171.887 35.0267 170.927 34.6933 169.673 34.32C167.86 33.76 166.38 33.2 165.233 32.64C164.087 32.08 163.1 31.2533 162.273 30.16C161.447 29.0667 161.033 27.64 161.033 25.88C161.033 23.2667 161.98 21.2267 163.873 19.76C165.767 18.2667 168.233 17.52 171.273 17.52C174.367 17.52 176.86 18.2667 178.753 19.76C180.647 21.2267 181.66 23.28 181.793 25.92H174.393C174.34 25.0133 174.007 24.3067 173.393 23.8C172.78 23.2667 171.993 23 171.033 23C170.207 23 169.54 23.2267 169.033 23.68C168.527 24.1067 168.273 24.7333 168.273 25.56C168.273 26.4667 168.7 27.1733 169.553 27.68C170.407 28.1867 171.74 28.7333 173.553 29.32C175.367 29.9333 176.833 30.52 177.953 31.08C179.1 31.64 180.087 32.4533 180.913 33.52C181.74 34.5867 182.153 35.96 182.153 37.64C182.153 39.24 181.74 40.6933 180.913 42C180.113 43.3067 178.94 44.3467 177.393 45.12C175.847 45.8933 174.02 46.28 171.913 46.28Z" fill="white"/>
<path d="M0 45.0315C0.314685 41.3182 0.534965 37.9511 0.66084 34.9301C0.849651 31.9091 0.944056 29.2657 0.944056 27C0.944056 24.7343 0.849651 22.0909 0.66084 19.0699C0.534965 15.986 0.314685 12.6189 0 8.96853H2.64336C3.08392 12.1783 3.87063 14.8532 5.0035 16.993C6.1993 19.0699 7.77273 20.7378 9.72378 21.9965C11.7378 23.2552 14.1608 24.1364 16.993 24.6399C19.8252 25.1434 23.1608 25.3951 27 25.3951C30.8392 25.3951 34.1748 25.1434 37.007 24.6399C39.8392 24.1364 42.2308 23.2552 44.1818 21.9965C46.1958 20.7378 47.7692 19.0699 48.9021 16.993C50.0979 14.8532 50.9161 12.1783 51.3566 8.96853H54C53.6853 12.6189 53.4336 15.986 53.2448 19.0699C53.1189 22.0909 53.0559 24.7343 53.0559 27C53.0559 29.2657 53.1189 31.9091 53.2448 34.9301C53.4336 37.9511 53.6853 41.3182 54 45.0315H51.3566C50.9161 41.8217 50.0979 39.1783 48.9021 37.1014C47.7692 34.9615 46.1958 33.2622 44.1818 32.0035C42.2308 30.7448 39.8392 29.8636 37.007 29.3601C34.1748 28.8566 30.8392 28.6049 27 28.6049C23.1608 28.6049 19.8252 28.8566 16.993 29.3601C14.1608 29.8636 11.7378 30.7448 9.72378 32.0035C7.77273 33.2622 6.1993 34.9615 5.0035 37.1014C3.87063 39.1783 3.08392 41.8217 2.64336 45.0315H0ZM8.96853 54V51.3566C12.1783 50.9161 14.8217 50.1294 16.8986 48.9965C19.0385 47.8007 20.7378 46.2273 21.9965 44.2762C23.2552 42.2622 24.1364 39.8392 24.6399 37.007C25.1434 34.1748 25.3951 30.8392 25.3951 27C25.3951 23.1608 25.1434 19.8252 24.6399 16.993C24.1364 14.1608 23.2552 11.7692 21.9965 9.81818C20.7378 7.8042 19.0385 6.23077 16.8986 5.0979C14.8217 3.9021 12.1783 3.08392 8.96853 2.64336V0C12.6818 0.314685 16.049 0.566434 19.0699 0.755246C22.0909 0.881119 24.7343 0.944055 27 0.944055C29.2657 0.944055 31.9091 0.881119 34.9301 0.755246C38.014 0.566434 41.3811 0.314685 45.0315 0V2.64336C41.8217 3.08392 39.1469 3.9021 37.007 5.0979C34.9301 6.23077 33.2622 7.8042 32.0035 9.81818C30.7448 11.7692 29.8636 14.1608 29.3601 16.993C28.8566 19.8252 28.6049 23.1608 28.6049 27C28.6049 30.8392 28.8566 34.1748 29.3601 37.007C29.8636 39.8392 30.7448 42.2622 32.0035 44.2762C33.2622 46.2273 34.9301 47.8007 37.007 48.9965C39.1469 50.1294 41.8217 50.9161 45.0315 51.3566V54C41.3811 53.6853 38.014 53.465 34.9301 53.3392C31.9091 53.1504 29.2657 53.0559 27 53.0559C24.7343 53.0559 22.0909 53.1504 19.0699 53.3392C16.049 53.465 12.6818 53.6853 8.96853 54Z" fill="#5CB85C"/>
</svg>
